#N canvas -1379 449 641 424 10;
#X floatatom 208 100 5 0 0 0 - - -;
#X msg 208 123 mod-ratio \$1;
#X floatatom 296 100 5 0 0 0 - - -;
#X floatatom 390 100 5 0 0 0 - - -;
#X msg 296 123 mod-amount \$1;
#X msg 390 123 distortion \$1;
#X floatatom 133 87 5 0 0 0 - - -;
#X obj 156 237 voice-abs 1;
#X obj 114 114 i;
#X obj 114 87 bng 15 250 50 0 empty empty empty 17 7 0 10 -262144 -1
-1;
#X floatatom 51 113 5 0 0 0 - - -;
#X obj 154 199 list prepend;
#X obj 145 359 dac~;
#X obj 225 346 print passed;
#X msg 114 137 freq \$1;
#X msg 37 17 2;
#X msg 50 37 4;
#X obj 46 71 t b f;
#X obj 156 260 voice-abs 2;
#X obj 156 283 voice-abs 3;
#X obj 156 306 voice-abs 4;
#X connect 0 0 1 0;
#X connect 1 0 11 0;
#X connect 2 0 4 0;
#X connect 3 0 5 0;
#X connect 4 0 11 0;
#X connect 5 0 11 0;
#X connect 6 0 8 1;
#X connect 7 0 18 0;
#X connect 7 1 18 1;
#X connect 8 0 14 0;
#X connect 9 0 8 0;
#X connect 10 0 11 1;
#X connect 11 0 7 1;
#X connect 14 0 11 0;
#X connect 15 0 17 0;
#X connect 16 0 17 0;
#X connect 17 0 9 0;
#X connect 17 1 10 0;
#X connect 18 0 19 0;
#X connect 18 1 19 1;
#X connect 19 0 20 0;
#X connect 19 1 20 1;
#X connect 20 0 12 1;
#X connect 20 0 12 0;
#X connect 20 1 13 0;
