#N canvas -895 236 733 682 10;
#X obj 244 273 osc~;
#X obj 227 200 sig~;
#X obj 243 348 *~;
#X obj 227 375 +~;
#X obj 227 408 osc~;
#X obj 244 324 clip~ -1 1;
#X obj 87 310 vline~;
#X obj 87 344 *~;
#X obj 178 432 *~;
#X obj 200 161 t b f;
#X msg 87 281 0 0 \, 1 10 0 \, 0 800 10;
#X obj 244 297 *~ 1;
#X obj 200 134 r \$0-freq;
#X obj 265 199 r \$0-mod-ratio;
#X obj 377 285 r \$0-mod-amount;
#X obj 297 257 r \$0-distortion;
#X obj 492 178 param \$0 freq;
#X obj 492 206 param \$0 mod-ratio;
#X obj 492 230 param \$0 mod-amount;
#X obj 492 258 param \$0 distortion;
#X obj 492 99 inlet;
#X obj 54 403 inlet~;
#X obj 101 526 outlet~;
#X obj 492 126 route \$1;
#X obj 537 150 outlet;
#X obj 356 307 *~ 0;
#X obj 244 244 *~ 1;
#X obj 411 153 print \$1;
#X obj 174 474 *~ 0.25;
#X connect 0 0 11 0;
#X connect 1 0 3 0;
#X connect 1 0 26 0;
#X connect 2 0 3 1;
#X connect 3 0 4 0;
#X connect 4 0 8 1;
#X connect 5 0 2 0;
#X connect 6 0 7 0;
#X connect 6 0 7 1;
#X connect 7 0 8 0;
#X connect 8 0 28 0;
#X connect 9 0 10 0;
#X connect 9 1 1 0;
#X connect 10 0 6 0;
#X connect 11 0 5 0;
#X connect 12 0 9 0;
#X connect 13 0 26 1;
#X connect 14 0 25 1;
#X connect 15 0 11 1;
#X connect 16 0 17 0;
#X connect 17 0 18 0;
#X connect 18 0 19 0;
#X connect 20 0 23 0;
#X connect 21 0 22 0;
#X connect 23 0 16 0;
#X connect 23 0 27 0;
#X connect 23 1 24 0;
#X connect 25 0 2 1;
#X connect 26 0 0 0;
#X connect 26 0 25 0;
#X connect 28 0 22 0;
